<svg xmlns="http://www.w3.org/2000/svg" xmlns:xlink="http://www.w3.org/1999/xlink" width="99" height="99" viewBox="0 0 99 99" fill="none"><defs><linearGradient id="linear_0" x1="71.89588027857798%" y1="0%" x2="155.2945417759381%" y2="37.864%" gradientUnits="objectBoundingBox"><stop offset="0" stop-color="#4285EB" stop-opacity="1" /><stop offset="1" stop-color="#2EC7FF" stop-opacity="1" /></linearGradient><linearGradient id="linear_1" x1="85.54145365992281%" y1="0%" x2="57.314910259981055%" y2="108.45700000000001%" gradientUnits="objectBoundingBox"><stop offset="0" stop-color="#29CDFF" stop-opacity="1" /><stop offset="0.3786" stop-color="#148EFF" stop-opacity="1" /><stop offset="1" stop-color="#0A60FF" stop-opacity="1" /></linearGradient><linearGradient id="linear_2" x1="98.76855312244692%" y1="-12.974%" x2="-32.416898189815946%" y2="117.391%" gradientUnits="objectBoundingBox"><stop offset="0" stop-color="#FA816E" stop-opacity="1" /><stop offset="0.41473" stop-color="#F74A5C" stop-opacity="1" /><stop offset="1" stop-color="#F51D2C" stop-opacity="1" /></linearGradient><linearGradient id="linear_3" x1="68.128%" y1="-35.82914383774918%" x2="30.44%" y2="115.04769565362692%" gradientUnits="objectBoundingBox"><stop offset="0" stop-color="#FA8E7D" stop-opacity="1" /><stop offset="0.51264" stop-color="#F74A5C" stop-opacity="1" /><stop offset="1" stop-color="#F51D2C" stop-opacity="1" /></linearGradient></defs><g opacity="1" transform="translate(-0.0000017109587133745663 -0.000013128316652455396)  rotate(0 49.1759209344115 49.35295474466023)"><path id="Shape" fill-rule="evenodd" fill="url(#linear_0)" transform="translate(0.3203534602635898 0.31350131601687004)  rotate(0 36.09476019036388 48.72562835010996)" opacity="1" d="M70.64,77.77C72.7,75.7 72.7,72.36 70.64,70.3C68.59,68.24 65.26,68.24 63.2,70.3L49.62,83.92C49.05,84.48 48.19,84.48 47.61,83.92L13.5,49.71C12.93,49.13 12.93,48.27 13.5,47.69L47.61,13.49C48.19,12.91 49.05,12.91 49.62,13.49L63.2,27.1C65.26,29.17 68.59,29.17 70.64,27.1C72.7,25.04 72.7,21.69 70.64,19.64L52.74,1.68C50.43,-0.57 46.72,-0.56 44.43,1.73L1.73,44.56C-0.58,46.87 -0.58,50.59 1.73,52.9L44.43,95.73C46.74,98.03 50.44,98.03 52.73,95.73L70.64,77.77Z " /><path id="Shape" fill-rule="evenodd" fill="url(#linear_1)" transform="translate(0.3203534602635898 0.31350131601687004)  rotate(0 36.09476019036388 48.72562835010996)" opacity="1" d="M44.43,95.73C46.74,98.03 50.44,98.03 52.73,95.73L70.64,77.77C72.7,75.7 72.7,72.36 70.64,70.3C68.59,68.24 65.26,68.24 63.2,70.3L49.62,83.92C49.05,84.48 48.19,84.48 47.61,83.92L13.5,49.71C12.93,49.13 12.93,48.27 13.5,47.69L47.61,13.49C49.04,12.26 51.36,9.76 54.77,9.18C57.3,8.74 60.07,9.7 63.08,12.04C61.07,10.03 57.62,6.57 52.74,1.68C50.43,-0.57 46.72,-0.56 44.43,1.73L1.73,44.56C-0.58,46.87 -0.58,50.59 1.73,52.9L44.43,95.73Z " /><path id="Shape" fill-rule="evenodd" fill="url(#linear_2)" transform="translate(73.43721705265057 30.19678172071437)  rotate(0 12.02250255737244 18.98854047090114)" opacity="1" d="M22.32,14.86L9,1.54C6.93,-0.52 3.6,-0.51 1.54,1.55C-0.51,3.61 -0.51,6.95 1.54,9.02L10.54,18.04C11.11,18.62 11.11,19.49 10.54,20.06L1.66,28.96C-0.39,31.02 -0.39,34.37 1.66,36.43C3.72,38.49 7.05,38.49 9.11,36.43L22.32,23.18C24.62,20.88 24.62,17.16 22.32,14.86Z " /><path id="Combined-Shape" fill-rule="evenodd" fill="url(#linear_3)" transform="translate(37.58806782876282 37.69248816114968)  rotate(0 11.532630439277794 11.56482985489839)" opacity="1" d="M11.53,23.13C17.9,23.13 23.07,17.95 23.07,11.56C23.07,5.18 17.9,0 11.53,0C5.16,0 0,5.18 0,11.56C0,17.95 5.16,23.13 11.53,23.13Z " /></g></svg>